<?xml version="1.0" encoding="iso-8859-1"?>
<!-- Generator: Adobe Illustrator 19.0.0, SVG Export Plug-In . SVG Version: 6.00 Build 0)  -->
<svg version="1.1" id="Layer_1" xmlns="http://www.w3.org/2000/svg" xmlns:xlink="http://www.w3.org/1999/xlink" x="0px" y="0px"
	 viewBox="0 0 503.653 503.653" style="enable-background:new 0 0 503.653 503.653;" xml:space="preserve">
<g transform="translate(0 -1)">
	<g>
		<path d="M503.632,36.236c-0.033-6.997-0.044-10.238-0.044-14.222c0-7.851-9.817-11.404-14.842-5.373
			c-24.917,29.908-40.898,44.064-64.73,54.344c-17.675-9.764-38.753-15.394-62.867-15.394c-50.722,0-88.305,19.359-109.367,56.139
			c-21.062-36.78-58.645-56.139-109.367-56.139c-24.096,0-45.161,5.621-62.828,15.372c-23.804-10.278-39.78-24.435-64.679-54.322
			c-5.025-6.032-14.842-2.478-14.842,5.373c0,3.985-0.011,7.225-0.044,14.222c-0.31,65.584,2.667,93.415,18.717,124.298
			c-7.632,45.576,5.868,98.323,45.068,141.647c13.185,14.575,48.901,51.578,99.322,103.156
			c18.027,18.44,36.837,37.621,55.151,56.252c12.222,12.434,24.023,24.416,27.533,27.967c3.286,3.324,8.654,3.324,11.939,0
			c3.51-3.552,15.311-15.534,27.533-27.967c18.313-18.63,37.124-37.811,55.151-56.252c50.421-51.578,86.138-88.581,99.323-103.157
			c39.163-43.283,52.676-95.973,45.091-141.519C500.956,129.727,503.943,101.909,503.632,36.236z M486.866,44.398
			c0.008,43.975-1.86,68.868-9.016,90.102c-7.789-20.745-20.491-38.943-37.564-52.624C457.08,73.232,470.771,61.971,486.866,44.398z
			 M16.787,44.398c16.077,17.554,29.757,28.81,46.526,37.45c-17.056,13.656-29.754,31.818-37.552,52.524
			C18.641,113.165,16.78,88.285,16.787,44.398z M427.309,290.918c-12.972,14.34-48.662,51.316-98.878,102.684
			c-18.015,18.428-36.815,37.598-55.118,56.219c-8.142,8.283-16.097,16.365-21.531,21.881c-5.435-5.516-13.389-13.598-21.531-21.881
			c-18.303-18.62-37.103-37.79-55.118-56.219c-50.216-51.368-85.906-88.344-98.878-102.684
			c-35.888-39.663-48.017-87.442-40.886-128.201c0.227-0.55,0.423-1.127,0.54-1.76c2.492-13.47,7.039-25.954,13.395-37.045
			c0.397-0.685,0.792-1.372,1.203-2.046c0.089-0.147,0.178-0.295,0.268-0.442c18.071-29.327,49.609-49.047,91.641-49.047
			c51.149,0,85.519,21.19,101.559,61.835c2.795,7.083,12.82,7.083,15.615,0c16.04-40.645,50.41-61.835,101.559-61.835
			c48.671,0,83.268,26.442,99.18,63.625c0.264,0.627,0.523,1.257,0.777,1.89c0.071,0.175,0.141,0.351,0.212,0.527
			c2.811,7.122,4.97,14.662,6.427,22.538c0.094,0.506,0.229,0.984,0.394,1.438C475.391,203.225,463.291,251.151,427.309,290.918z"/>
	</g>
</g>
<g>
</g>
<g>
</g>
<g>
</g>
<g>
</g>
<g>
</g>
<g>
</g>
<g>
</g>
<g>
</g>
<g>
</g>
<g>
</g>
<g>
</g>
<g>
</g>
<g>
</g>
<g>
</g>
<g>
</g>
</svg>
