<?xml version="1.0" encoding="utf-8"?>
<svg width="58" height="58" xmlns="http://www.w3.org/2000/svg" xmlns:svg="http://www.w3.org/2000/svg">
 <title>New Dance Icon</title>
 <g>
  <title>Layer 1</title>
  <g transform="rotate(-180 29.1081 29)" id="svg_1"/>
  <g id="svg_5"/>
  <g id="svg_6"/>
  <g id="svg_7"/>
  <g id="svg_8"/>
  <g id="svg_9"/>
  <g id="svg_10"/>
  <g id="svg_11"/>
  <g id="svg_12"/>
  <g id="svg_13"/>
  <g id="svg_14"/>
  <g id="svg_15"/>
  <g id="svg_16"/>
  <g id="svg_17"/>
  <g id="svg_18"/>
  <g id="svg_19"/>
  <text transform="matrix(0.698799 0 0 0.675849 6.99372 5.84426)" xml:space="preserve" text-anchor="middle" font-family="Fantasy" font-size="24" id="svg_21" y="28.485158" x="40.77829" stroke-width="0" fill="#000000">New</text>
  <text xml:space="preserve" text-anchor="middle" font-family="Fantasy" font-size="24" id="svg_22" y="49.147291" x="54.569247" stroke-width="0" fill="#000000" transform="matrix(0.599076 0 0 0.599076 -0.371629 8.36122)">Dance</text>
  <g id="svg_23" transform="rotate(25.4879 29.1081 29)"/>
  <g id="svg_24" transform="rotate(140.269 33.704 32.962)"/>
  <g id="svg_26" transform="rotate(43.3102 33.5455 24.5626)">
   <path fill="#000000" id="svg_2" d="m58.864502,33.4016c0.443001,-1.921001 0.681,-3.879004 0.681,-5.839003c0,-9.094995 -4.631001,-17.376999 -12.389,-22.152996c-0.473,-0.290001 -1.087002,-0.143 -1.375999,0.327c-0.290001,0.471001 -0.143002,1.086 0.327,1.375999c7.161999,4.41 11.438,12.053999 11.438,20.449999c0,1.726002 -0.200001,3.451002 -0.573002,5.146999c-0.460999,-0.096001 -0.938,-0.146999 -1.426998,-0.146999c-3.860001,0 -7,3.140999 -7,7s3.139999,7 7,7s7,-3.140999 7,-7c0,-2.659 -1.491001,-4.976002 -3.681,-6.160995l0,-0.000004zm-3.319,11.160999c-2.757,0 -5,-2.243 -5,-5s2.243,-5 5,-5s5,2.243 5,5s-2.243,5 -5,5z"/>
   <path fill="#000000" id="svg_3" d="m42.716499,49.744598c-2.914997,1.206001 -6,1.818001 -9.170998,1.818001c-6.385,0 -12.526999,-2.575001 -17.017,-7.091999c1.246,-1.264999 2.017,-2.997002 2.017,-4.908001c0,-3.859001 -3.140001,-7 -6.99999,-7s-7.000001,3.140999 -7.000001,7s3.140002,7 7.000001,7c1.226001,0 2.378001,-0.319 3.380991,-0.875c4.879002,5.011002 11.612999,7.875 18.618999,7.875c3.434998,0 6.778,-0.662998 9.936001,-1.971001c0.509998,-0.210999 0.752998,-0.795998 0.542,-1.306999c-0.211002,-0.508999 -0.797001,-0.750999 -1.307003,-0.540001zm-36.17099,-10.181999c0,-2.757 2.243001,-5 5,-5s4.99999,2.243 4.99999,5s-2.24299,5 -4.99999,5s-5,-2.243 -5,-5z"/>
   <path fill="#000000" id="svg_4" d="m8.54551,26.7756c0.024,0.001999 0.047999,0.002998 0.071,0.002998c0.521001,0 0.959001,-0.402 0.997,-0.93c0.712001,-10.088998 7.585991,-18.52 17.21999,-21.313997c0.854,2.901999 3.537001,5.028 6.712002,5.028c3.860001,0 7,-3.141001 7,-7s-3.139999,-7 -7,-7c-3.851002,0 -6.985001,3.127 -6.999001,6.975c-10.581,2.947 -18.14999,12.145001 -18.92799,23.170998c-0.039,0.549997 0.376,1.028999 0.927,1.067001l0,0l-0.000001,0zm24.999991,-29.213001c2.757,0 5,2.243001 5,5s-2.243,5 -5,5s-5,-2.243 -5,-5s2.243,-5 5,-5z"/>
  </g>
 </g>
</svg>
