<?xml version="1.0" encoding="iso-8859-1"?>
<!-- Generator: Adobe Illustrator 19.1.0, SVG Export Plug-In . SVG Version: 6.00 Build 0)  -->
<svg version="1.1" id="Capa_1" xmlns="http://www.w3.org/2000/svg" xmlns:xlink="http://www.w3.org/1999/xlink" x="0px" y="0px"
	 viewBox="0 0 544.824 544.824" style="enable-background:new 0 0 544.824 544.824;" xml:space="preserve">
<g>
	<path d="M499.568,45.228c-36.762-36.762-90.392-62.307-121.302-31.415L65.668,326.392c-1.163,1.149-1.971,2.594-2.368,4.162
		l-0.007-0.002L27.446,469.961L0.734,532.289c-1.458,3.366-0.702,7.291,1.908,9.901c1.728,1.71,4.033,2.628,6.373,2.628
		c1.188,0,2.412-0.234,3.564-0.702l62.355-26.724l139.346-35.835l-0.014-0.054c1.565-0.403,3.014-1.184,4.155-2.34l312.598-312.597
		C561.911,135.673,536.365,82.007,499.568,45.228z M178.743,429.357c-6.879-3.19-15.923-5.041-25.33-6.957
		c-8.371-1.71-21.009-4.303-23.835-7.129c-2.844-2.826-5.419-15.464-7.129-23.835c-1.932-9.421-3.79-18.477-6.983-25.354
		l244.596-244.596l63.276,63.276L178.743,429.357z M80.719,336.816L328.041,89.465l19.292,19.292L101.099,354.991
		c-4.013-0.085-8.693,0.824-13.953,1.844c-1.872,0.36-4.501,0.882-6.679,1.206C80.035,353.27,80.107,345.007,80.719,336.816z
		 M340.769,76.735l36.944-36.948l127.314,127.314l-36.946,36.946L340.769,76.735z M70.458,375.015
		c5.053,2.413,11.891,1.063,20.162-0.556c2.394-0.468,5.941-1.17,8.317-1.44c2.34,4.645,4.429,14.852,5.869,21.981
		c2.773,13.52,5.383,26.302,12.044,32.963c6.661,6.679,19.443,9.29,32.981,12.044c7.633,1.548,18.848,3.853,22.881,6.391
		c0.306,2.322,0.126,7.039,0,10.045c-0.244,6.448-0.458,12.296,0.983,16.956l-98.953,25.44l-28.732-28.75L70.458,375.015z
		 M39.06,488.595l17.204,17.204l-30.111,12.898L39.06,488.595z M207.854,464.275c-6.625,0.828-13.304,1.26-17.283,1.098
		c-0.09-2.485,0.054-5.905,0.126-8.228c0.195-5.148,0.366-9.906-0.299-13.984l245.669-245.669l19.284,19.285L207.854,464.275z
		 M518.289,153.838l-0.533,0.533L390.441,27.057l0.534-0.534c21.189-21.153,64.215-0.198,95.846,31.415
		c17.156,17.157,30.406,36.959,36.365,54.35C529.398,130.399,527.74,144.387,518.289,153.838z"/>
</g>
<g>
</g>
<g>
</g>
<g>
</g>
<g>
</g>
<g>
</g>
<g>
</g>
<g>
</g>
<g>
</g>
<g>
</g>
<g>
</g>
<g>
</g>
<g>
</g>
<g>
</g>
<g>
</g>
<g>
</g>
</svg>
